<mxfile host="app.diagrams.net" modified="2022-04-09T21:25:13.776Z" agent="5.0 (Windows NT 10.0; Win64; x64) AppleWebKit/537.36 (KHTML, like Gecko) Chrome/100.0.4896.75 Safari/537.36" etag="U9Qio_FWK_6x9r4e152X" version="17.4.2" type="github">
  <diagram id="BzfMgtuO0udezx_fjmtK" name="Page-1">
    <mxGraphModel dx="2607" dy="1427" grid="1" gridSize="10" guides="1" tooltips="1" connect="1" arrows="1" fold="1" page="1" pageScale="1" pageWidth="850" pageHeight="1100" math="0" shadow="0">
      <root>
        <mxCell id="0" />
        <mxCell id="1" parent="0" />
        <mxCell id="BPH6bGNM1Euj1kMfaKU0-1" value="Pacienti" style="whiteSpace=wrap;html=1;align=center;fillColor=#d5e8d4;strokeColor=#82b366;" vertex="1" parent="1">
          <mxGeometry x="300" y="1390" width="100" height="40" as="geometry" />
        </mxCell>
        <mxCell id="BPH6bGNM1Euj1kMfaKU0-2" value="Medicamente" style="whiteSpace=wrap;html=1;align=center;fillColor=#d5e8d4;strokeColor=#82b366;" vertex="1" parent="1">
          <mxGeometry x="760" y="1560" width="100" height="40" as="geometry" />
        </mxCell>
        <mxCell id="BPH6bGNM1Euj1kMfaKU0-3" value="Medici" style="whiteSpace=wrap;html=1;align=center;fillColor=#d5e8d4;strokeColor=#82b366;" vertex="1" parent="1">
          <mxGeometry x="530" y="1750" width="100" height="40" as="geometry" />
        </mxCell>
        <mxCell id="BPH6bGNM1Euj1kMfaKU0-4" value="Receta" style="shape=rhombus;perimeter=rhombusPerimeter;whiteSpace=wrap;html=1;align=center;fillColor=#d5e8d4;strokeColor=#82b366;" vertex="1" parent="1">
          <mxGeometry x="520" y="1550" width="120" height="60" as="geometry" />
        </mxCell>
        <mxCell id="BPH6bGNM1Euj1kMfaKU0-5" style="edgeStyle=orthogonalEdgeStyle;rounded=0;orthogonalLoop=1;jettySize=auto;html=1;entryX=0.5;entryY=1;entryDx=0;entryDy=0;curved=1;" edge="1" parent="1" source="BPH6bGNM1Euj1kMfaKU0-6" target="BPH6bGNM1Euj1kMfaKU0-1">
          <mxGeometry relative="1" as="geometry" />
        </mxCell>
        <mxCell id="BPH6bGNM1Euj1kMfaKU0-6" value="ID_Pacient" style="ellipse;whiteSpace=wrap;html=1;align=center;fillColor=#f8cecc;strokeColor=#b85450;" vertex="1" parent="1">
          <mxGeometry x="170" y="1460" width="100" height="40" as="geometry" />
        </mxCell>
        <mxCell id="BPH6bGNM1Euj1kMfaKU0-7" style="edgeStyle=orthogonalEdgeStyle;rounded=0;orthogonalLoop=1;jettySize=auto;html=1;entryX=0.18;entryY=1.075;entryDx=0;entryDy=0;entryPerimeter=0;curved=1;" edge="1" parent="1" source="BPH6bGNM1Euj1kMfaKU0-8" target="BPH6bGNM1Euj1kMfaKU0-3">
          <mxGeometry relative="1" as="geometry" />
        </mxCell>
        <mxCell id="BPH6bGNM1Euj1kMfaKU0-8" value="Prenume" style="ellipse;whiteSpace=wrap;html=1;align=center;" vertex="1" parent="1">
          <mxGeometry x="474" y="1840" width="100" height="40" as="geometry" />
        </mxCell>
        <mxCell id="BPH6bGNM1Euj1kMfaKU0-9" style="edgeStyle=orthogonalEdgeStyle;rounded=0;orthogonalLoop=1;jettySize=auto;html=1;entryX=1;entryY=1;entryDx=0;entryDy=0;curved=1;" edge="1" parent="1" source="BPH6bGNM1Euj1kMfaKU0-10" target="BPH6bGNM1Euj1kMfaKU0-2">
          <mxGeometry relative="1" as="geometry" />
        </mxCell>
        <mxCell id="BPH6bGNM1Euj1kMfaKU0-10" value="Denumire" style="ellipse;whiteSpace=wrap;html=1;align=center;" vertex="1" parent="1">
          <mxGeometry x="920" y="1590" width="100" height="40" as="geometry" />
        </mxCell>
        <mxCell id="BPH6bGNM1Euj1kMfaKU0-11" style="edgeStyle=orthogonalEdgeStyle;rounded=0;orthogonalLoop=1;jettySize=auto;html=1;entryX=0;entryY=0.5;entryDx=0;entryDy=0;curved=1;" edge="1" parent="1" source="BPH6bGNM1Euj1kMfaKU0-12" target="BPH6bGNM1Euj1kMfaKU0-1">
          <mxGeometry relative="1" as="geometry" />
        </mxCell>
        <mxCell id="BPH6bGNM1Euj1kMfaKU0-12" value="Nume" style="ellipse;whiteSpace=wrap;html=1;align=center;" vertex="1" parent="1">
          <mxGeometry x="160" y="1350" width="100" height="40" as="geometry" />
        </mxCell>
        <mxCell id="BPH6bGNM1Euj1kMfaKU0-13" style="edgeStyle=orthogonalEdgeStyle;rounded=0;orthogonalLoop=1;jettySize=auto;html=1;entryX=0.25;entryY=0;entryDx=0;entryDy=0;curved=1;" edge="1" parent="1" source="BPH6bGNM1Euj1kMfaKU0-14" target="BPH6bGNM1Euj1kMfaKU0-1">
          <mxGeometry relative="1" as="geometry" />
        </mxCell>
        <mxCell id="BPH6bGNM1Euj1kMfaKU0-14" value="Prenume" style="ellipse;whiteSpace=wrap;html=1;align=center;" vertex="1" parent="1">
          <mxGeometry x="180" y="1280" width="100" height="40" as="geometry" />
        </mxCell>
        <mxCell id="BPH6bGNM1Euj1kMfaKU0-15" style="edgeStyle=orthogonalEdgeStyle;rounded=0;orthogonalLoop=1;jettySize=auto;html=1;curved=1;" edge="1" parent="1" source="BPH6bGNM1Euj1kMfaKU0-16" target="BPH6bGNM1Euj1kMfaKU0-16">
          <mxGeometry relative="1" as="geometry">
            <Array as="points">
              <mxPoint x="350" y="1470" />
              <mxPoint x="390" y="1470" />
            </Array>
          </mxGeometry>
        </mxCell>
        <mxCell id="BPH6bGNM1Euj1kMfaKU0-16" value="Adresa" style="ellipse;whiteSpace=wrap;html=1;align=center;" vertex="1" parent="1">
          <mxGeometry x="320" y="1220" width="100" height="40" as="geometry" />
        </mxCell>
        <mxCell id="BPH6bGNM1Euj1kMfaKU0-17" style="edgeStyle=orthogonalEdgeStyle;rounded=0;orthogonalLoop=1;jettySize=auto;html=1;entryX=0.75;entryY=1;entryDx=0;entryDy=0;curved=1;" edge="1" parent="1" source="BPH6bGNM1Euj1kMfaKU0-18" target="BPH6bGNM1Euj1kMfaKU0-1">
          <mxGeometry relative="1" as="geometry">
            <Array as="points">
              <mxPoint x="220" y="1580" />
              <mxPoint x="390" y="1580" />
              <mxPoint x="390" y="1430" />
            </Array>
          </mxGeometry>
        </mxCell>
        <mxCell id="BPH6bGNM1Euj1kMfaKU0-18" value="Data nasteri" style="ellipse;whiteSpace=wrap;html=1;align=center;" vertex="1" parent="1">
          <mxGeometry x="170" y="1510" width="100" height="40" as="geometry" />
        </mxCell>
        <mxCell id="BPH6bGNM1Euj1kMfaKU0-19" style="edgeStyle=orthogonalEdgeStyle;rounded=0;orthogonalLoop=1;jettySize=auto;html=1;entryX=0.75;entryY=0;entryDx=0;entryDy=0;curved=1;" edge="1" parent="1" source="BPH6bGNM1Euj1kMfaKU0-20" target="BPH6bGNM1Euj1kMfaKU0-2">
          <mxGeometry relative="1" as="geometry" />
        </mxCell>
        <mxCell id="BPH6bGNM1Euj1kMfaKU0-20" value="Den_inter" style="ellipse;whiteSpace=wrap;html=1;align=center;fillColor=#f8cecc;strokeColor=#b85450;" vertex="1" parent="1">
          <mxGeometry x="887" y="1510" width="100" height="40" as="geometry" />
        </mxCell>
        <mxCell id="BPH6bGNM1Euj1kMfaKU0-21" style="edgeStyle=orthogonalEdgeStyle;rounded=0;orthogonalLoop=1;jettySize=auto;html=1;entryX=0.5;entryY=0;entryDx=0;entryDy=0;curved=1;" edge="1" parent="1" source="BPH6bGNM1Euj1kMfaKU0-22" target="BPH6bGNM1Euj1kMfaKU0-2">
          <mxGeometry relative="1" as="geometry" />
        </mxCell>
        <mxCell id="BPH6bGNM1Euj1kMfaKU0-22" value="Producator" style="ellipse;whiteSpace=wrap;html=1;align=center;" vertex="1" parent="1">
          <mxGeometry x="887" y="1460" width="100" height="40" as="geometry" />
        </mxCell>
        <mxCell id="BPH6bGNM1Euj1kMfaKU0-23" style="edgeStyle=orthogonalEdgeStyle;rounded=0;orthogonalLoop=1;jettySize=auto;html=1;entryX=0.75;entryY=1;entryDx=0;entryDy=0;curved=1;" edge="1" parent="1" source="BPH6bGNM1Euj1kMfaKU0-24" target="BPH6bGNM1Euj1kMfaKU0-2">
          <mxGeometry relative="1" as="geometry" />
        </mxCell>
        <mxCell id="BPH6bGNM1Euj1kMfaKU0-24" value="Ambalaj" style="ellipse;whiteSpace=wrap;html=1;align=center;" vertex="1" parent="1">
          <mxGeometry x="920" y="1640" width="100" height="40" as="geometry" />
        </mxCell>
        <mxCell id="BPH6bGNM1Euj1kMfaKU0-25" style="edgeStyle=orthogonalEdgeStyle;rounded=0;orthogonalLoop=1;jettySize=auto;html=1;entryX=0;entryY=1;entryDx=0;entryDy=0;curved=1;" edge="1" parent="1" source="BPH6bGNM1Euj1kMfaKU0-26" target="BPH6bGNM1Euj1kMfaKU0-2">
          <mxGeometry relative="1" as="geometry">
            <Array as="points">
              <mxPoint x="770" y="1700" />
              <mxPoint x="770" y="1600" />
            </Array>
          </mxGeometry>
        </mxCell>
        <mxCell id="BPH6bGNM1Euj1kMfaKU0-26" value="Data_prod" style="ellipse;whiteSpace=wrap;html=1;align=center;" vertex="1" parent="1">
          <mxGeometry x="920" y="1690" width="100" height="40" as="geometry" />
        </mxCell>
        <mxCell id="BPH6bGNM1Euj1kMfaKU0-27" style="edgeStyle=orthogonalEdgeStyle;rounded=0;orthogonalLoop=1;jettySize=auto;html=1;entryX=0.25;entryY=0;entryDx=0;entryDy=0;curved=1;" edge="1" parent="1" source="BPH6bGNM1Euj1kMfaKU0-28" target="BPH6bGNM1Euj1kMfaKU0-2">
          <mxGeometry relative="1" as="geometry">
            <Array as="points">
              <mxPoint x="785" y="1470" />
            </Array>
          </mxGeometry>
        </mxCell>
        <mxCell id="BPH6bGNM1Euj1kMfaKU0-28" value="Data_expir" style="ellipse;whiteSpace=wrap;html=1;align=center;" vertex="1" parent="1">
          <mxGeometry x="790" y="1430" width="100" height="40" as="geometry" />
        </mxCell>
        <mxCell id="BPH6bGNM1Euj1kMfaKU0-29" style="edgeStyle=orthogonalEdgeStyle;rounded=0;orthogonalLoop=1;jettySize=auto;html=1;entryX=0;entryY=0.5;entryDx=0;entryDy=0;curved=1;" edge="1" parent="1" source="BPH6bGNM1Euj1kMfaKU0-30" target="BPH6bGNM1Euj1kMfaKU0-3">
          <mxGeometry relative="1" as="geometry">
            <Array as="points">
              <mxPoint x="460" y="1770" />
            </Array>
          </mxGeometry>
        </mxCell>
        <mxCell id="BPH6bGNM1Euj1kMfaKU0-30" value="Nume" style="ellipse;whiteSpace=wrap;html=1;align=center;" vertex="1" parent="1">
          <mxGeometry x="400" y="1800" width="100" height="40" as="geometry" />
        </mxCell>
        <mxCell id="BPH6bGNM1Euj1kMfaKU0-31" style="edgeStyle=orthogonalEdgeStyle;rounded=0;orthogonalLoop=1;jettySize=auto;html=1;entryX=0.75;entryY=1;entryDx=0;entryDy=0;curved=1;" edge="1" parent="1" source="BPH6bGNM1Euj1kMfaKU0-32" target="BPH6bGNM1Euj1kMfaKU0-3">
          <mxGeometry relative="1" as="geometry" />
        </mxCell>
        <mxCell id="BPH6bGNM1Euj1kMfaKU0-32" value="Specialitatea" style="ellipse;whiteSpace=wrap;html=1;align=center;" vertex="1" parent="1">
          <mxGeometry x="590" y="1840" width="100" height="40" as="geometry" />
        </mxCell>
        <mxCell id="BPH6bGNM1Euj1kMfaKU0-33" style="edgeStyle=orthogonalEdgeStyle;rounded=0;orthogonalLoop=1;jettySize=auto;html=1;entryX=1;entryY=0.5;entryDx=0;entryDy=0;curved=1;" edge="1" parent="1" source="BPH6bGNM1Euj1kMfaKU0-34" target="BPH6bGNM1Euj1kMfaKU0-3">
          <mxGeometry relative="1" as="geometry">
            <Array as="points">
              <mxPoint x="700" y="1770" />
            </Array>
          </mxGeometry>
        </mxCell>
        <mxCell id="BPH6bGNM1Euj1kMfaKU0-34" value="ID_Medic" style="ellipse;whiteSpace=wrap;html=1;align=center;fillColor=#f8cecc;strokeColor=#b85450;" vertex="1" parent="1">
          <mxGeometry x="660" y="1790" width="100" height="40" as="geometry" />
        </mxCell>
        <mxCell id="BPH6bGNM1Euj1kMfaKU0-35" style="edgeStyle=orthogonalEdgeStyle;rounded=0;orthogonalLoop=1;jettySize=auto;html=1;entryX=0.5;entryY=0;entryDx=0;entryDy=0;curved=1;" edge="1" parent="1" source="BPH6bGNM1Euj1kMfaKU0-36" target="BPH6bGNM1Euj1kMfaKU0-4">
          <mxGeometry relative="1" as="geometry" />
        </mxCell>
        <mxCell id="BPH6bGNM1Euj1kMfaKU0-36" value="ID_Pacient" style="ellipse;whiteSpace=wrap;html=1;align=center;fillColor=#fff2cc;strokeColor=#d6b656;" vertex="1" parent="1">
          <mxGeometry x="530" y="1440" width="100" height="40" as="geometry" />
        </mxCell>
        <mxCell id="BPH6bGNM1Euj1kMfaKU0-37" style="edgeStyle=orthogonalEdgeStyle;rounded=0;orthogonalLoop=1;jettySize=auto;html=1;entryX=1;entryY=0;entryDx=0;entryDy=0;curved=1;" edge="1" parent="1" source="BPH6bGNM1Euj1kMfaKU0-38" target="BPH6bGNM1Euj1kMfaKU0-4">
          <mxGeometry relative="1" as="geometry" />
        </mxCell>
        <mxCell id="BPH6bGNM1Euj1kMfaKU0-38" value="Den_inter" style="ellipse;whiteSpace=wrap;html=1;align=center;fillColor=#fff2cc;strokeColor=#d6b656;" vertex="1" parent="1">
          <mxGeometry x="610" y="1480" width="100" height="40" as="geometry" />
        </mxCell>
        <mxCell id="BPH6bGNM1Euj1kMfaKU0-39" style="edgeStyle=orthogonalEdgeStyle;rounded=0;orthogonalLoop=1;jettySize=auto;html=1;entryX=1;entryY=1;entryDx=0;entryDy=0;curved=1;" edge="1" parent="1" source="BPH6bGNM1Euj1kMfaKU0-40" target="BPH6bGNM1Euj1kMfaKU0-4">
          <mxGeometry relative="1" as="geometry" />
        </mxCell>
        <mxCell id="BPH6bGNM1Euj1kMfaKU0-40" value="ID_Medic" style="ellipse;whiteSpace=wrap;html=1;align=center;fillColor=#fff2cc;strokeColor=#d6b656;" vertex="1" parent="1">
          <mxGeometry x="650" y="1600" width="100" height="40" as="geometry" />
        </mxCell>
        <mxCell id="BPH6bGNM1Euj1kMfaKU0-41" style="edgeStyle=orthogonalEdgeStyle;rounded=0;orthogonalLoop=1;jettySize=auto;html=1;entryX=0;entryY=0;entryDx=0;entryDy=0;curved=1;" edge="1" parent="1" source="BPH6bGNM1Euj1kMfaKU0-42" target="BPH6bGNM1Euj1kMfaKU0-4">
          <mxGeometry relative="1" as="geometry" />
        </mxCell>
        <mxCell id="BPH6bGNM1Euj1kMfaKU0-42" value="Data" style="ellipse;whiteSpace=wrap;html=1;align=center;" vertex="1" parent="1">
          <mxGeometry x="430" y="1480" width="100" height="40" as="geometry" />
        </mxCell>
        <mxCell id="BPH6bGNM1Euj1kMfaKU0-43" style="edgeStyle=orthogonalEdgeStyle;rounded=0;orthogonalLoop=1;jettySize=auto;html=1;entryX=0;entryY=1;entryDx=0;entryDy=0;curved=1;" edge="1" parent="1" source="BPH6bGNM1Euj1kMfaKU0-44" target="BPH6bGNM1Euj1kMfaKU0-4">
          <mxGeometry relative="1" as="geometry">
            <Array as="points">
              <mxPoint x="470" y="1610" />
              <mxPoint x="550" y="1610" />
            </Array>
          </mxGeometry>
        </mxCell>
        <mxCell id="BPH6bGNM1Euj1kMfaKU0-44" value="Doza" style="ellipse;whiteSpace=wrap;html=1;align=center;" vertex="1" parent="1">
          <mxGeometry x="420" y="1630" width="100" height="40" as="geometry" />
        </mxCell>
        <mxCell id="BPH6bGNM1Euj1kMfaKU0-45" style="edgeStyle=orthogonalEdgeStyle;rounded=0;orthogonalLoop=1;jettySize=auto;html=1;entryX=0.5;entryY=1;entryDx=0;entryDy=0;curved=1;" edge="1" parent="1" source="BPH6bGNM1Euj1kMfaKU0-46" target="BPH6bGNM1Euj1kMfaKU0-4">
          <mxGeometry relative="1" as="geometry">
            <Array as="points">
              <mxPoint x="580" y="1670" />
            </Array>
          </mxGeometry>
        </mxCell>
        <mxCell id="BPH6bGNM1Euj1kMfaKU0-46" value="Nr_Receta" style="ellipse;whiteSpace=wrap;html=1;align=center;fillColor=#f8cecc;strokeColor=#b85450;" vertex="1" parent="1">
          <mxGeometry x="610" y="1650" width="100" height="40" as="geometry" />
        </mxCell>
        <mxCell id="BPH6bGNM1Euj1kMfaKU0-47" value="Furnizor" style="whiteSpace=wrap;html=1;align=center;fillColor=#d5e8d4;strokeColor=#82b366;" vertex="1" parent="1">
          <mxGeometry x="1360" y="1560" width="100" height="40" as="geometry" />
        </mxCell>
        <mxCell id="BPH6bGNM1Euj1kMfaKU0-48" value="Livreaza" style="shape=rhombus;perimeter=rhombusPerimeter;whiteSpace=wrap;html=1;align=center;fillColor=#d5e8d4;strokeColor=#82b366;" vertex="1" parent="1">
          <mxGeometry x="1130" y="1550" width="120" height="60" as="geometry" />
        </mxCell>
        <mxCell id="BPH6bGNM1Euj1kMfaKU0-49" style="edgeStyle=orthogonalEdgeStyle;rounded=0;orthogonalLoop=1;jettySize=auto;html=1;entryX=0.75;entryY=0;entryDx=0;entryDy=0;curved=1;" edge="1" parent="1" source="BPH6bGNM1Euj1kMfaKU0-50" target="BPH6bGNM1Euj1kMfaKU0-47">
          <mxGeometry relative="1" as="geometry" />
        </mxCell>
        <mxCell id="BPH6bGNM1Euj1kMfaKU0-50" value="ID_Furnizor" style="ellipse;whiteSpace=wrap;html=1;align=center;fillColor=#f8cecc;strokeColor=#b85450;" vertex="1" parent="1">
          <mxGeometry x="1480" y="1480" width="100" height="40" as="geometry" />
        </mxCell>
        <mxCell id="BPH6bGNM1Euj1kMfaKU0-51" style="edgeStyle=orthogonalEdgeStyle;rounded=0;orthogonalLoop=1;jettySize=auto;html=1;entryX=1;entryY=0.5;entryDx=0;entryDy=0;curved=1;" edge="1" parent="1" source="BPH6bGNM1Euj1kMfaKU0-52" target="BPH6bGNM1Euj1kMfaKU0-47">
          <mxGeometry relative="1" as="geometry" />
        </mxCell>
        <mxCell id="BPH6bGNM1Euj1kMfaKU0-52" value="Denumire" style="ellipse;whiteSpace=wrap;html=1;align=center;" vertex="1" parent="1">
          <mxGeometry x="1500" y="1560" width="100" height="40" as="geometry" />
        </mxCell>
        <mxCell id="BPH6bGNM1Euj1kMfaKU0-53" style="edgeStyle=orthogonalEdgeStyle;rounded=0;orthogonalLoop=1;jettySize=auto;html=1;entryX=0.75;entryY=1;entryDx=0;entryDy=0;curved=1;" edge="1" parent="1" source="BPH6bGNM1Euj1kMfaKU0-54" target="BPH6bGNM1Euj1kMfaKU0-47">
          <mxGeometry relative="1" as="geometry" />
        </mxCell>
        <mxCell id="BPH6bGNM1Euj1kMfaKU0-54" value="Adresa" style="ellipse;whiteSpace=wrap;html=1;align=center;" vertex="1" parent="1">
          <mxGeometry x="1480" y="1630" width="100" height="40" as="geometry" />
        </mxCell>
        <mxCell id="BPH6bGNM1Euj1kMfaKU0-55" style="edgeStyle=orthogonalEdgeStyle;rounded=0;orthogonalLoop=1;jettySize=auto;html=1;entryX=0;entryY=0;entryDx=0;entryDy=0;curved=1;" edge="1" parent="1" source="BPH6bGNM1Euj1kMfaKU0-56" target="BPH6bGNM1Euj1kMfaKU0-48">
          <mxGeometry relative="1" as="geometry" />
        </mxCell>
        <mxCell id="BPH6bGNM1Euj1kMfaKU0-56" value="Data" style="ellipse;whiteSpace=wrap;html=1;align=center;" vertex="1" parent="1">
          <mxGeometry x="1070" y="1480" width="100" height="40" as="geometry" />
        </mxCell>
        <mxCell id="BPH6bGNM1Euj1kMfaKU0-57" style="edgeStyle=orthogonalEdgeStyle;rounded=0;orthogonalLoop=1;jettySize=auto;html=1;entryX=1;entryY=0;entryDx=0;entryDy=0;curved=1;" edge="1" parent="1" source="BPH6bGNM1Euj1kMfaKU0-58" target="BPH6bGNM1Euj1kMfaKU0-48">
          <mxGeometry relative="1" as="geometry" />
        </mxCell>
        <mxCell id="BPH6bGNM1Euj1kMfaKU0-58" value="ID_Furnizor" style="ellipse;whiteSpace=wrap;html=1;align=center;fillColor=#fff2cc;strokeColor=#d6b656;" vertex="1" parent="1">
          <mxGeometry x="1220" y="1480" width="100" height="40" as="geometry" />
        </mxCell>
        <mxCell id="BPH6bGNM1Euj1kMfaKU0-59" style="edgeStyle=orthogonalEdgeStyle;rounded=0;orthogonalLoop=1;jettySize=auto;html=1;entryX=0;entryY=1;entryDx=0;entryDy=0;curved=1;" edge="1" parent="1" source="BPH6bGNM1Euj1kMfaKU0-60" target="BPH6bGNM1Euj1kMfaKU0-48">
          <mxGeometry relative="1" as="geometry" />
        </mxCell>
        <mxCell id="BPH6bGNM1Euj1kMfaKU0-60" value="Cantitatea" style="ellipse;whiteSpace=wrap;html=1;align=center;" vertex="1" parent="1">
          <mxGeometry x="1060" y="1640" width="100" height="40" as="geometry" />
        </mxCell>
        <mxCell id="BPH6bGNM1Euj1kMfaKU0-61" style="edgeStyle=orthogonalEdgeStyle;rounded=0;orthogonalLoop=1;jettySize=auto;html=1;entryX=0.5;entryY=1;entryDx=0;entryDy=0;curved=1;" edge="1" parent="1" source="BPH6bGNM1Euj1kMfaKU0-62" target="BPH6bGNM1Euj1kMfaKU0-48">
          <mxGeometry relative="1" as="geometry" />
        </mxCell>
        <mxCell id="BPH6bGNM1Euj1kMfaKU0-62" value="Pret_unit" style="ellipse;whiteSpace=wrap;html=1;align=center;" vertex="1" parent="1">
          <mxGeometry x="1140" y="1720" width="100" height="40" as="geometry" />
        </mxCell>
        <mxCell id="BPH6bGNM1Euj1kMfaKU0-63" style="edgeStyle=orthogonalEdgeStyle;rounded=0;orthogonalLoop=1;jettySize=auto;html=1;entryX=1;entryY=1;entryDx=0;entryDy=0;curved=1;" edge="1" parent="1" source="BPH6bGNM1Euj1kMfaKU0-64" target="BPH6bGNM1Euj1kMfaKU0-48">
          <mxGeometry relative="1" as="geometry" />
        </mxCell>
        <mxCell id="BPH6bGNM1Euj1kMfaKU0-64" value="Den_inter" style="ellipse;whiteSpace=wrap;html=1;align=center;fillColor=#fff2cc;strokeColor=#d6b656;" vertex="1" parent="1">
          <mxGeometry x="1230" y="1650" width="100" height="40" as="geometry" />
        </mxCell>
        <mxCell id="BPH6bGNM1Euj1kMfaKU0-65" style="edgeStyle=orthogonalEdgeStyle;rounded=0;orthogonalLoop=1;jettySize=auto;html=1;entryX=0.5;entryY=0;entryDx=0;entryDy=0;curved=1;" edge="1" parent="1" source="BPH6bGNM1Euj1kMfaKU0-66" target="BPH6bGNM1Euj1kMfaKU0-48">
          <mxGeometry relative="1" as="geometry" />
        </mxCell>
        <mxCell id="BPH6bGNM1Euj1kMfaKU0-66" value="Nr_Factura" style="ellipse;whiteSpace=wrap;html=1;align=center;fillColor=#f8cecc;strokeColor=#b85450;" vertex="1" parent="1">
          <mxGeometry x="1140" y="1410" width="100" height="40" as="geometry" />
        </mxCell>
        <mxCell id="BPH6bGNM1Euj1kMfaKU0-67" value="" style="edgeStyle=entityRelationEdgeStyle;fontSize=12;html=1;endArrow=ERoneToMany;exitX=1;exitY=0.5;exitDx=0;exitDy=0;entryX=0;entryY=0.5;entryDx=0;entryDy=0;curved=1;" edge="1" parent="1" source="BPH6bGNM1Euj1kMfaKU0-1" target="BPH6bGNM1Euj1kMfaKU0-4">
          <mxGeometry width="100" height="100" relative="1" as="geometry">
            <mxPoint x="530" y="1670" as="sourcePoint" />
            <mxPoint x="630" y="1570" as="targetPoint" />
          </mxGeometry>
        </mxCell>
        <mxCell id="BPH6bGNM1Euj1kMfaKU0-68" value="" style="edgeStyle=entityRelationEdgeStyle;fontSize=12;html=1;endArrow=ERoneToMany;entryX=0.5;entryY=1;entryDx=0;entryDy=0;curved=1;" edge="1" parent="1" target="BPH6bGNM1Euj1kMfaKU0-4">
          <mxGeometry width="100" height="100" relative="1" as="geometry">
            <mxPoint x="530" y="1770" as="sourcePoint" />
            <mxPoint x="630" y="1670" as="targetPoint" />
          </mxGeometry>
        </mxCell>
        <mxCell id="BPH6bGNM1Euj1kMfaKU0-69" value="" style="edgeStyle=entityRelationEdgeStyle;fontSize=12;html=1;endArrow=ERoneToMany;entryX=0;entryY=0.5;entryDx=0;entryDy=0;curved=1;" edge="1" parent="1" source="BPH6bGNM1Euj1kMfaKU0-4" target="BPH6bGNM1Euj1kMfaKU0-2">
          <mxGeometry width="100" height="100" relative="1" as="geometry">
            <mxPoint x="590" y="1670" as="sourcePoint" />
            <mxPoint x="690" y="1570" as="targetPoint" />
          </mxGeometry>
        </mxCell>
        <mxCell id="BPH6bGNM1Euj1kMfaKU0-70" value="" style="edgeStyle=entityRelationEdgeStyle;fontSize=12;html=1;endArrow=ERoneToMany;entryX=1;entryY=0.5;entryDx=0;entryDy=0;exitX=0;exitY=0.5;exitDx=0;exitDy=0;curved=1;" edge="1" parent="1" source="BPH6bGNM1Euj1kMfaKU0-47" target="BPH6bGNM1Euj1kMfaKU0-48">
          <mxGeometry width="100" height="100" relative="1" as="geometry">
            <mxPoint x="1180" y="1690" as="sourcePoint" />
            <mxPoint x="1280" y="1590" as="targetPoint" />
          </mxGeometry>
        </mxCell>
        <mxCell id="BPH6bGNM1Euj1kMfaKU0-71" value="" style="edgeStyle=entityRelationEdgeStyle;fontSize=12;html=1;endArrow=ERoneToMany;exitX=1;exitY=0.5;exitDx=0;exitDy=0;entryX=0;entryY=0.5;entryDx=0;entryDy=0;curved=1;" edge="1" parent="1" source="BPH6bGNM1Euj1kMfaKU0-2" target="BPH6bGNM1Euj1kMfaKU0-48">
          <mxGeometry width="100" height="100" relative="1" as="geometry">
            <mxPoint x="1140" y="1670" as="sourcePoint" />
            <mxPoint x="1240" y="1570" as="targetPoint" />
          </mxGeometry>
        </mxCell>
        <mxCell id="BPH6bGNM1Euj1kMfaKU0-72" value="Tip_vanzare" style="shape=parallelogram;perimeter=parallelogramPerimeter;whiteSpace=wrap;html=1;fixedSize=1;fillColor=#d5e8d4;strokeColor=#82b366;" vertex="1" parent="1">
          <mxGeometry x="850" y="1780" width="120" height="60" as="geometry" />
        </mxCell>
        <mxCell id="BPH6bGNM1Euj1kMfaKU0-73" style="edgeStyle=orthogonalEdgeStyle;rounded=0;orthogonalLoop=1;jettySize=auto;html=1;entryX=1;entryY=0.5;entryDx=0;entryDy=0;curved=1;" edge="1" parent="1" source="BPH6bGNM1Euj1kMfaKU0-74" target="BPH6bGNM1Euj1kMfaKU0-72">
          <mxGeometry relative="1" as="geometry" />
        </mxCell>
        <mxCell id="BPH6bGNM1Euj1kMfaKU0-74" value="Cod_vanzare" style="ellipse;whiteSpace=wrap;html=1;align=center;fillColor=#f8cecc;strokeColor=#b85450;" vertex="1" parent="1">
          <mxGeometry x="1000" y="1790" width="100" height="40" as="geometry" />
        </mxCell>
        <mxCell id="BPH6bGNM1Euj1kMfaKU0-75" style="edgeStyle=orthogonalEdgeStyle;rounded=0;orthogonalLoop=1;jettySize=auto;html=1;entryX=0.583;entryY=1;entryDx=0;entryDy=0;entryPerimeter=0;curved=1;" edge="1" parent="1" source="BPH6bGNM1Euj1kMfaKU0-76" target="BPH6bGNM1Euj1kMfaKU0-72">
          <mxGeometry relative="1" as="geometry" />
        </mxCell>
        <mxCell id="BPH6bGNM1Euj1kMfaKU0-76" value="Tip" style="ellipse;whiteSpace=wrap;html=1;align=center;" vertex="1" parent="1">
          <mxGeometry x="900" y="1880" width="100" height="40" as="geometry" />
        </mxCell>
        <mxCell id="BPH6bGNM1Euj1kMfaKU0-77" value="" style="edgeStyle=entityRelationEdgeStyle;fontSize=12;html=1;endArrow=ERmandOne;startArrow=ERmandOne;entryX=0.25;entryY=1;entryDx=0;entryDy=0;exitX=0;exitY=0.5;exitDx=0;exitDy=0;curved=1;" edge="1" parent="1" source="BPH6bGNM1Euj1kMfaKU0-72" target="BPH6bGNM1Euj1kMfaKU0-2">
          <mxGeometry width="100" height="100" relative="1" as="geometry">
            <mxPoint x="760" y="1820" as="sourcePoint" />
            <mxPoint x="860" y="1720" as="targetPoint" />
          </mxGeometry>
        </mxCell>
        <mxCell id="BPH6bGNM1Euj1kMfaKU0-78" style="edgeStyle=orthogonalEdgeStyle;rounded=0;orthogonalLoop=1;jettySize=auto;html=1;entryX=0;entryY=0;entryDx=0;entryDy=0;curved=1;" edge="1" parent="1" target="BPH6bGNM1Euj1kMfaKU0-2">
          <mxGeometry relative="1" as="geometry">
            <mxPoint x="760" y="1420" as="sourcePoint" />
          </mxGeometry>
        </mxCell>
        <mxCell id="BPH6bGNM1Euj1kMfaKU0-79" value="Cod_vanzare" style="ellipse;whiteSpace=wrap;html=1;align=center;fillColor=#fff2cc;strokeColor=#d6b656;" vertex="1" parent="1">
          <mxGeometry x="710" y="1380" width="100" height="40" as="geometry" />
        </mxCell>
        <mxCell id="BPH6bGNM1Euj1kMfaKU0-80" value="&lt;b&gt;&lt;font style=&quot;font-size: 15px&quot;&gt;Laborator nr. 1. Gestiunea informatiei&lt;/font&gt;&lt;/b&gt;" style="text;html=1;strokeColor=none;fillColor=none;align=center;verticalAlign=middle;whiteSpace=wrap;rounded=0;" vertex="1" parent="1">
          <mxGeometry x="174" y="50" width="280" height="20" as="geometry" />
        </mxCell>
        <mxCell id="BPH6bGNM1Euj1kMfaKU0-81" value="&lt;b style=&quot;background-color: rgb(255 , 255 , 255)&quot;&gt;&lt;font style=&quot;font-size: 20px&quot;&gt;Exercitiul 5&lt;/font&gt;&lt;/b&gt;" style="text;html=1;strokeColor=none;fillColor=none;align=center;verticalAlign=middle;whiteSpace=wrap;rounded=0;" vertex="1" parent="1">
          <mxGeometry x="640" y="10" width="110" height="20" as="geometry" />
        </mxCell>
        <mxCell id="BPH6bGNM1Euj1kMfaKU0-83" value="Farmacia familiei. Proprietarul „Farmaciei familiei” s-a adresat cu rugămintea de a proiecta&lt;br&gt;o bază de date pentru a păstra datele referitoare la medicamentele compensate. Din dialogul&lt;br&gt;cu proprietarul s-au evidenţiat următoarele fapte:&lt;br&gt; Pentru fiecare pacient (persoana ce are reţetă) trebuie de păstrat identificatorul,&lt;br&gt;numele, prenumele, adresa şi vîrsta;&lt;br&gt; Pentru fiecare medic (medicii semnează reţetele) trebuie păstrat identificatorul,&lt;br&gt;numele, prenumele, specialitatea;&lt;br&gt; Pentru medicamentele din farmacie se păstrează: denumirea, denumirea&lt;br&gt;internaţională, producătorul, data producerii, data expirării, ambalaj (pastile, unguent&lt;br&gt;etc.);&lt;br&gt; Medicul prescrie medicamente pacientului. Medicul, într-o reţetă, poate prescrie unul&lt;br&gt;sau mai multe medicamente. Pacientul poate avea mai multe reţete de la diferiţi&lt;br&gt;&lt;br&gt;medici. Fiecare reţetă conţine: data eliberării reţetei, denumirea medicamentului&lt;br&gt;prescris, doza, date referitor la pacientul căruia i-au prescris, date referitor la medicul&lt;br&gt;care a prescris;&lt;br&gt; Farmacia are încheiate contracte de livrare cu mai mulţi furnizori. Pentru fiecare&lt;br&gt;livrare se specifică: data livrării, numele furnizorului, medicamentele livrate,&lt;br&gt;cantitatea, preţ pentru o unitate.&lt;br&gt; Construieşte modelul Entitate-Asociere;&lt;br&gt; Modifică modelul în situaţia în care trebuie păstrate toate vînzările (şi pe recetă şi&lt;br&gt;fără);&lt;br&gt; Precizează constrîngerile de integritate;&lt;br&gt; Extinde modelul;&lt;br&gt; Transpune modelul Entitate-Asociere în modelul relaţional." style="text;whiteSpace=wrap;html=1;fontSize=20;" vertex="1" parent="1">
          <mxGeometry x="70" y="110" width="550" height="1070" as="geometry" />
        </mxCell>
      </root>
    </mxGraphModel>
  </diagram>
</mxfile>
